<svg id="Layer_2" data-name="Layer 2" xmlns="http://www.w3.org/2000/svg" viewBox="0 0 703.99 919.49"><title>tasbeeh_counter_layout blackfill</title><path d="M888.09,335.4c-5-47.53-10.21-70.21-20.24-99.38-12.45-36.19-36.59-67.63-79.59-95.68C711.92,90.55,607.4,81.11,540,80.43c-67.4.68-171.92,10.12-248.26,59.91-43,28-67.14,59.49-79.59,95.68-10,29.17-15.27,51.85-20.24,99.38-10.52,100.7,3.17,176.52,6.64,194.56,5.28,27.43,12.16,63.13,24.56,95.95.65,1.74,5.36,16.16,14.76,45a181.82,181.82,0,0,1,7.83,33.59c.59,4.48.87,7.88,1.08,10.57,2.85,36.51,2.57,53.78,5.61,77A240.51,240.51,0,0,0,257.28,820c10.6,43.77,31.57,71.59,38.11,79.84,5.53,7,10.12,11.76,13.12,14.88,1,1.06,25,26.93,58.38,44.85,61.78,33.2,125.54,40,173.11,40.34,47.57-.34,111.33-7.14,173.11-40.34,33.35-17.92,57.36-43.79,58.38-44.85,3-3.12,7.59-7.92,13.12-14.88,6.54-8.25,27.51-36.07,38.11-79.84a240.51,240.51,0,0,0,4.89-27.92c3-23.25,2.76-40.52,5.61-77,.21-2.69.49-6.09,1.08-10.57a181.82,181.82,0,0,1,7.83-33.59c9.4-28.82,14.11-43.24,14.76-45,12.4-32.82,19.28-68.52,24.56-95.95C884.92,511.92,898.61,436.1,888.09,335.4Z" transform="translate(-188.01 -80.43)"/></svg>